<?xml version="1.0" encoding="UTF-8"?>
<svg id="Capa_1" xmlns="http://www.w3.org/2000/svg" version="1.1" viewBox="0 0 31.9 32">
  <!-- Generator: Adobe Illustrator 29.8.1, SVG Export Plug-In . SVG Version: 2.1.1 Build 2)  -->
  <defs>
    <style>
      .st0 {
        fill: #18578c;
      }
    </style>
  </defs>
  <path class="st0" d="M29.8,25.9c0,0-.4.2-.6.2-.8.2-2.1.1-2.9-.1-2.6-.9-2.6-3.5-5.9-3.2s-3.1,2-4.8,2.9-.9.4-1.3.5c-2.5.8-3.6-1.3-5.4-2.5s-2.6-1.7-3.7-1.6-2.1,1.2-2.6,1.7-.6,1-.9.7,0-.6.2-.8c.7-.9,2.1-2,3.3-2.1,3.6-.3,5,3.3,8.1,4.1s3.3-1.8,4.8-2.9,4.2-.4,5.9.8,2.4,2.2,4.6,2,.8-.3,1-.2.3.5.1.7Z"/>
  <path class="st0" d="M8.1,5.7c1.1,0,2,.5,2.8,1.2,1.2,1,1.8,2.6,3.6,2.2s1.5-1,2.3-1.6c4-3.2,6.9,1.8,11.1,1.7h1.9c.3,0,.3.5,0,.6-1,.2-2.1.2-3.1.2-1.6-.1-2.6-1.1-3.8-1.9s-2.7-1-4.4-.6-3,2.3-5.2,2.3-2.1-2.1-3.5-2.8-2.9-.4-3.8-.2-3.4,1.3-3.9,1.8-.1.3-.4.3-.3-.6,0-.8c.3-.3,1.4-.8,1.8-1,1.1-.5,3.4-1.3,4.6-1.3Z"/>
  <path class="st0" d="M30.2,19.7c0,0-1.3.5-1.5.5-1.9.5-3.3.4-4.7-1.1s-.6-.8-1-1.2c-1.5-1.3-4.5-1.6-6.3-.8s-1.9,1.7-2.9,2.2c-2.5,1.1-4.1-.9-6-2.1s-1.3-.6-2.3-.2-1.9.9-2.8,1.3c-.4.1-.5-.4-.3-.7s.7-.4.9-.5c2.4-1.1,3.9-1.5,6.3.2s1.3,1.5,2.6,1.4c3.4-.4,4.9-3.9,8.8-2.7s2.1,1.6,3.3,2.7,3.3,1,4.9.6.9-.4,1.1-.2.2.5,0,.6Z"/>
  <path class="st0" d="M30.2,14.1c.2.1.2.5,0,.7s-1.4.3-1.7.3c-3.2.2-4.3-2.1-7-2.9s-4.8,1.2-7.2,2.4-3-.8-4.5-2c-2.6-1.9-5-.9-7.6.4-.5,0-.5-.5-.1-.8,1.1-.7,3.3-1.1,4.6-1.3s2-.2,3.1.6c1.5,1,1.8,2.6,4,2.5s4.5-3.4,7.2-2.7,1.8.9,2.7,1.5c1.7,1.1,3.7,1.8,5.8,1.6s.7-.2.8,0Z"/>
  <path class="st0" d="M4,8.8c.4,0,.5.5.2.7s-2,.8-2.2.8c-.5,0-.6-.5-.2-.7.5-.2,1-.3,1.5-.5s.5-.3.7-.3Z"/>
  <path class="st0" d="M4.6,14.5c.4,0,.5.5.2.7s-1.8.7-2.1.7c-.4,0-.5-.5-.2-.8s1.5-.4,2-.7Z"/>
  <path class="st0" d="M23.4,10.1c.2,0,.9.5,1.2.6s1.2.2,1.1.7-.5.2-.8.1c-.4-.1-1.7-.6-1.8-1.1s0-.4.3-.4Z"/>
  <path class="st0" d="M2.8,20.5c-.1-.1-.1-.4,0-.6.2-.3,1.6-.6,1.9-.8h.1c.2.2.3.6,0,.7l-1.9.7s-.1,0-.2,0Z"/>
  <path class="st0" d="M26.2,22.2c.1,0,.2.1.4.2.5.2.9,0,1.3.1s.5.7,0,.8-1.3,0-1.5-.1c-.4-.2-.5-.8-.2-.9Z"/>
  <path class="st0" d="M15,11.4c0,0-.1-.2-.1-.3,0-.5.5-.5.8-.6s.9-.6,1.1-.2,0,.5-.2.7-1.2.5-1.2.5-.2,0-.3,0Z"/>
  <path class="st0" d="M10.3,16.1c.2-.2.6.1.8.2.3,0,1,0,1.1.4.2.7-.7.5-1.1.4s-.8-.2-.8-.4,0-.5,0-.5Z"/>
  <path class="st0" d="M13.7,22.9s0-.2,0-.2c0-.6.5-.5.9-.6s.8-.7,1-.2-.3.7-.7.9-.8.4-1.1.2Z"/>
  <path class="st0" d="M10.6,9.4c.2,0,.4.5.5.6.2.3,1,.6.7,1.1s-.5,0-.6-.1-.7-.7-.8-1,0-.5.2-.6Z"/>
  <path class="st0" d="M26.2,17.4c.1.1.1.6-.1.7-.5,0-1.9-.5-1.4-1.2s.5.2.8.3.7.1.8.2Z"/>
  <path class="st0" d="M15.8,15.4c.1.1.2.5,0,.7s-.9.4-1,.4c-.3,0-.6,0-.6-.3,0-.5.9-.6,1.3-.8,0,0,.2,0,.3,0Z"/>
  <path class="st0" d="M17.3,15.2c-.3-.3,0-.7.4-.8s.7-.2.8-.2c.2,0,.3.3.3.5,0,.4-.6.4-.9.5s-.4.3-.6,0Z"/>
  <path class="st0" d="M12.5,22.1c.2.2.2.8-.2.7s-.9-.4-1-.6-.3-.4-.2-.6c.2-.4.7.1,1,.3s.3.1.4.2Z"/>
  <path class="st0" d="M27.4,11.4c.2.1.2.6,0,.7s-.9,0-1,0-.2-.6,0-.7,1,0,1.1,0Z"/>
  <path class="st0" d="M28.1,16.7c.4,0,.5.6.1.8s-.7.2-.8,0c-.3-.5.3-.7.7-.8Z"/>
  <path class="st0" d="M6.4,8.8s-.4.1-.4.1c-.5,0-.5-.7,0-.8s.7.4.5.7Z"/>
  <path class="st0" d="M23.2,15.2c.3,0,.6.5.5.8-.2.7-1.2-.5-.5-.8Z"/>
  <path class="st0" d="M24.6,22.2c-.4.4-.8-.7-.4-.9s.7.6.4.9Z"/>
  <path class="st0" d="M18.4,10c-.3-.3,0-1,.5-.7s0,1-.5.7Z"/>
  <path class="st0" d="M17.6,20.1c.4,0,.4.8,0,.9s-.5-.9,0-.9Z"/>
  <path class="st0" d="M6.3,13.8c.6-.1.6.9,0,.8s-.4-.7,0-.8Z"/>
  <path class="st0" d="M19.5,19.4c.6-.1.6.9,0,.8s-.4-.8,0-.8Z"/>
  <path class="st0" d="M21.7,19.9c.4,0,.6.8.3.9-.5.2-.7-.8-.3-.9Z"/>
  <path class="st0" d="M6.9,19.3c-.2-.2-.1-.9.3-.7s.1,1.1-.3.7Z"/>
  <path class="st0" d="M8.6,8.1c.5-.2.6.7.4.8-.5.2-.7-.7-.4-.8Z"/>
  <path class="st0" d="M9,19.6c.2.2.3.9-.1.8s-.3-1.2.1-.8Z"/>
  <path class="st0" d="M13.1,11s0,0,0,0c.6,0,.4,1.1-.2.8s-.3-.7,0-.8Z"/>
  <path class="st0" d="M21.3,9.9c-.2.1-.5,0-.5-.2-.1-.9,1-.5.5.2Z"/>
  <path class="st0" d="M20.7,14.5c-.2-.2-.2-.8.2-.7.6,0,.3,1.2-.2.7Z"/>
  <path class="st0" d="M8.6,14.1c.5,0,.5.8,0,.8s-.4-.7,0-.8Z"/>
  <path class="st0" d="M28.6,11.7c.3,0,.4.7,0,.8s-.4-.7,0-.8Z"/>
  <path class="st0" d="M29.2,21.8c.4-.1.5.6.2.7-.3,0-.5-.6-.2-.7Z"/>
</svg>