<svg width="107" height="68" viewBox="0 0 107 68" fill="none" xmlns="http://www.w3.org/2000/svg">
<g clip-path="url(#clip0_1_382)">
<path d="M89.5253 52.3009C89.2852 52.5491 88.3959 52.8239 88.0313 52.9037C86.0482 53.338 82.4732 53.2051 80.5524 52.5491C73.9004 50.2886 73.6603 43.3743 65.0875 44.1278C59.8051 44.5887 57.1194 49.3756 52.7174 51.6094C51.8014 52.0704 50.3964 52.682 49.4181 52.9746C42.8018 54.9602 40.0361 49.5174 35.305 46.4503C32.9039 44.8901 28.5375 41.9293 25.674 42.2041C23.762 42.3903 20.2581 45.1915 18.9687 46.6187C18.4796 47.1506 17.4124 49.2071 16.5765 48.4093C15.8383 47.7002 16.5409 46.8049 16.9944 46.2109C18.7641 43.8973 22.5792 41.0163 25.5583 40.777C35.0115 40.0235 38.6399 49.216 46.6613 51.3612C52.5307 52.9303 55.1986 46.8226 59.147 43.9505C64.1271 40.3337 70.0676 42.9576 74.5496 45.9982C78.7738 48.8614 80.9259 51.6449 86.6173 51.1573C87.3466 51.0953 88.7339 50.4748 89.2408 50.5546C89.9077 50.6609 89.9522 51.8576 89.5076 52.3009H89.5253Z" fill="#18578D"/>
<path d="M33.144 8.43953e-07C35.9275 -0.0354574 38.4175 1.23217 40.4718 3.01395C43.4776 5.62899 45.1851 9.67123 49.9339 8.74932C52.4506 8.26177 53.9624 6.11654 55.8566 4.6273C66.3859 -3.6522 73.8915 9.32551 84.8388 9.04185L89.7388 8.6784C90.4324 8.81137 90.5391 10.3183 89.8277 10.5577C87.142 11.0009 84.4297 11.125 81.7084 11.0718C77.6088 10.7793 74.9854 8.24404 71.8017 6.152C68.1111 3.72311 64.6429 3.43945 60.4365 4.66276C55.5987 6.06336 52.5307 10.5931 46.9904 10.5931C41.9836 10.5931 41.539 5.1769 37.795 3.29762C35.5807 2.18068 30.325 2.33138 27.8705 2.75688C26.1364 3.04941 18.9953 6.19632 17.7148 7.31326C17.3501 7.63238 17.4213 8.1022 16.7099 7.9781C15.8383 7.8274 16.0162 6.53318 16.4609 5.94812C17.1367 5.06166 20.0269 3.927 21.1652 3.47491C24.1444 2.27819 30.0937 0.0354591 33.144 8.43953e-07Z" fill="#18578D"/>
<path d="M90.7259 36.2028C90.5658 36.3979 87.3021 37.435 86.7774 37.5768C81.744 38.9774 78.1779 38.5254 74.5318 34.687C73.607 33.7119 72.8688 32.524 71.8373 31.6376C67.9422 28.2868 60.0897 27.4092 55.4742 29.5278C52.6552 30.8221 50.6365 33.969 47.8174 35.2543C41.2811 38.2328 37.1548 32.852 32.0769 29.8558C29.8092 28.5173 28.7242 28.2779 26.1897 29.2176C23.7887 30.104 21.2453 31.4692 18.9776 32.6482C17.9638 32.9141 17.7059 31.6199 18.0972 30.9373C18.3195 30.5384 19.8669 29.9533 20.3649 29.7317C26.7233 26.9837 30.5918 25.8756 36.639 30.2193C39.1646 32.0276 39.9649 34.1551 43.531 33.7296C52.4417 32.6659 56.408 23.695 66.4304 26.6646C71.1347 28.0563 71.8639 30.9196 75.1454 33.6144C78.4269 36.3092 83.7182 36.1497 87.7734 35.1036C88.4671 34.9263 90.0056 34.1374 90.5925 34.554C90.9571 34.8111 90.9927 35.8749 90.7259 36.2028Z" fill="#18578D"/>
<path d="M90.4947 21.8423C90.9038 22.1791 90.9838 23.1808 90.6192 23.562C90.1746 24.0318 87.0353 24.3953 86.2883 24.4307C78.0446 24.8296 75.2077 18.8992 68.0844 16.7895C60.3743 14.5024 55.5187 19.8566 49.3025 22.8971C43.4688 25.7515 41.5301 20.6987 37.4749 17.6936C30.7607 12.7118 24.4023 15.3711 17.6614 18.6953C16.4075 18.8904 16.2919 17.3213 17.2879 16.6476C20.0981 14.7595 25.8163 13.7578 29.1778 13.35C32.3081 12.9688 34.4958 12.9245 37.1637 14.7861C40.961 17.4366 41.8947 21.6206 47.4795 21.204C54.3537 20.6987 59.0581 12.3306 66.2436 14.0858C69.0004 14.7595 70.9747 16.4703 73.2957 17.9153C77.6799 20.6633 83.0246 22.6135 88.2981 22.0284C88.8762 21.9664 90.0767 21.4965 90.4947 21.8423Z" fill="#18578D"/>
<path d="M19.7335 59.295C22.5081 58.9759 24.1266 59.7471 24.3133 62.6547C24.4823 65.1899 24.3133 67.7252 21.2542 67.9645C17.0656 68.2925 16.5676 65.8991 16.8788 62.2912C17.0389 60.4563 17.8837 59.4989 19.7335 59.2861V59.295ZM21.5209 65.908C22.0634 65.3584 22.019 62.3533 21.7344 61.6441C21.4231 60.8552 19.9736 60.7754 19.5378 61.4846C19.1376 62.1494 19.1643 64.5517 19.36 65.3229C19.6001 66.2625 20.9429 66.4842 21.5209 65.908Z" fill="black"/>
<path d="M91.6063 59.3837C93.3316 59.5255 97.2533 58.5947 98.0982 60.6158C98.6229 61.8835 98.2938 63.612 96.7553 63.8603C98.2138 64.463 98.2494 66.5108 98.5517 67.8582H96.3374C95.8838 67.1933 95.9372 65.4825 95.4925 64.8797C95.1991 64.4808 94.3276 64.6758 93.8829 64.6315V67.672L93.7051 67.8493H91.6063V59.3748V59.3837ZM93.874 62.9649C94.8345 62.9117 96.0795 63.3372 96.035 61.9544C95.9994 60.7045 94.79 60.9438 93.874 60.935V62.9649Z" fill="black"/>
<path d="M78.1957 59.3837V62.4862H80.7035V59.3837H82.9801V67.8493H80.7035V64.1528H78.1957V67.8493H76.097L75.9191 67.672V59.5609L76.097 59.3837H78.1957Z" fill="black"/>
<path d="M104.83 67.8493L104.225 65.8104L101.655 65.8725L101.006 67.8493H98.9074L101.193 59.8091C101.504 59.295 102.722 59.3393 103.283 59.3748C103.79 59.4014 104.51 59.428 104.75 59.9421L107.009 67.6011L106.875 67.8493H104.839H104.83ZM102.136 64.1528H103.816L103.034 61.1654L102.74 61.2452L102.136 64.1439V64.1528Z" fill="black"/>
<path d="M27.7816 59.3837V65.5268C27.7816 65.5711 28.0573 65.9434 28.0839 65.9434H31.2587C31.2765 66.3512 31.2231 66.7767 31.2676 67.1845C31.2765 67.2997 31.321 67.6366 31.4988 67.61L33.891 59.6673C34.3179 59.2507 36.6212 59.2596 37.0747 59.6053C37.7239 60.0928 39.0134 66.4664 39.5914 67.6011L39.458 67.8493H37.4215C36.9769 67.4681 37.1103 65.9257 36.5856 65.8193C36.3455 65.775 34.3535 65.8016 34.2379 65.8725C33.9444 66.2891 33.9889 67.7518 33.4642 67.8493C33.0996 67.9202 32.2014 67.8759 31.7834 67.8493C31.57 67.8404 31.4099 67.672 31.3121 67.6632C29.9603 67.61 27.0523 68.3546 26.0208 67.3263C25.9052 67.2111 25.505 66.4576 25.505 66.3512V59.5521L25.6828 59.3748H27.7816V59.3837ZM34.6025 64.1528H36.3988L35.6163 61.1654L35.3228 61.2452L34.6025 64.1439V64.1528Z" fill="black"/>
<path d="M6.04721 67.8493L5.91382 67.6011L8.17263 59.9421C8.38606 59.4102 9.13307 59.4014 9.63107 59.3659C10.2447 59.3305 11.3563 59.2507 11.7209 59.8003L14.0153 67.7163C13.2238 67.9291 12.548 67.7163 11.7476 67.7075L11.1784 65.8282L8.68842 65.8016L8.0837 67.8404H6.04721V67.8493ZM9.0975 64.1528H10.7783L10.1735 61.2541L9.88007 61.1743L9.0975 64.1616V64.1528Z" fill="black"/>
<path d="M55.8033 59.4989V61.1654H52.3884C51.9882 61.1654 52.086 62.4508 52.086 62.7167H55.3231V64.268H52.086C52.1038 64.5783 51.9526 66.0587 52.3884 66.0587H55.8033V67.7252C54.2381 67.5125 50.1029 68.7358 49.8094 66.3601C49.7027 65.5179 49.6849 61.2629 49.8717 60.5715C50.3875 58.6124 54.3093 59.5875 55.8033 59.4989Z" fill="black"/>
<path d="M86.6974 64.2769C86.7596 64.6935 86.5373 65.6952 86.8664 65.9612C87.2932 66.2891 89.6321 65.8991 90.299 66.1207L90.4147 67.7429C88.8495 67.5213 84.7143 68.7535 84.4208 66.3689C84.2785 65.1899 84.2963 62.2026 84.4208 60.9881C84.6698 58.4263 88.6983 59.623 90.4147 59.4989L90.3613 61.059C90.1301 61.3959 87.4889 60.9615 86.9375 61.2275C86.5284 61.4225 86.7508 62.3267 86.6974 62.7167H89.9344V64.268H86.6974V64.2769Z" fill="black"/>
<path d="M58.4978 59.3837L60.0007 65.7573C60.0185 65.9346 60.0897 66.0587 60.2942 66.0587C60.641 66.0675 61.4325 59.9244 61.975 59.3748H64.0115L64.1449 59.623L62.0017 67.282C61.6193 68.1152 58.8713 68.0975 58.4712 67.282L56.3102 59.6496C56.2568 59.5521 56.4347 59.3748 56.4702 59.3748H58.5067L58.4978 59.3837Z" fill="black"/>
<path d="M48.4933 61.2895H45.443C45.443 61.2895 45.0161 61.6884 44.9717 61.7771C44.6426 62.3887 44.527 65.9434 45.5586 65.9434H48.7334L48.849 67.61C46.5902 68.0355 43.2909 68.5673 42.5617 65.7041C42.2148 64.3655 42.1971 61.3161 43.1664 60.2258C44.2958 58.9582 47.0793 59.2064 48.5555 59.6141L48.4844 61.2895H48.4933Z" fill="black"/>
<path d="M74.603 61.2895H71.5527C70.6189 61.2895 70.6901 64.729 71.028 65.3938C71.526 66.3689 73.7137 65.8016 74.6475 65.9346L74.8431 67.5479C73.2513 68.0709 70.0943 68.3191 69.0627 66.7412C68.1467 65.3406 68.1556 61.6973 69.1516 60.341C70.1476 58.9848 73.0823 59.2418 74.5941 59.5521C74.9142 59.7737 74.4429 60.8906 74.5941 61.2895H74.603Z" fill="black"/>
<path d="M2.2766 59.3837V65.6509C2.2766 65.7395 2.57006 65.9168 2.69456 65.9434C3.26371 66.0498 5.34466 65.8016 5.62924 65.9966L5.74485 67.7341C4.39312 67.6277 1.49402 68.3457 0.489112 67.3086C0.373504 67.1845 0 66.4753 0 66.3601V59.3837H2.2766Z" fill="black"/>
<path d="M67.1774 59.3837H64.9008V67.8582H67.1774V59.3837Z" fill="black"/>
<path d="M22.4814 7.98696C23.4596 7.79194 23.8865 9.16595 22.9082 9.84852C22.4903 10.141 17.7948 11.9228 17.2701 11.9849C16.0429 12.1267 15.785 10.7172 16.6565 10.0524C17.9815 9.62691 19.3244 9.23687 20.6316 8.76704C21.1652 8.57202 21.9745 8.08447 22.4903 7.98696H22.4814Z" fill="#18578D"/>
<path d="M24.0377 22.7819C25.1493 22.5426 25.4072 24.1559 24.589 24.6523C24.0377 24.9803 19.8135 26.4696 19.191 26.5582C18.1238 26.7089 17.777 25.1487 18.7641 24.5725C20.0447 23.8191 22.6326 23.5797 24.0466 22.7908L24.0377 22.7819Z" fill="#18578D"/>
<path d="M72.8777 11.453C73.5002 11.3821 75.1454 12.6852 75.9547 12.9954C76.9863 13.3855 79.005 13.3943 78.7826 14.9368C78.6226 16.0271 77.4932 15.4864 76.7817 15.2736C75.6968 14.9545 72.3619 13.7844 72.2019 12.5433C72.1485 12.109 72.3886 11.5062 72.8688 11.453H72.8777Z" fill="#18578D"/>
<path d="M19.3155 38.3481C18.9687 37.9935 18.9776 37.2577 19.2355 36.8411C19.7157 36.0433 23.3351 35.3784 24.2866 34.82L24.669 34.8554C25.256 35.2189 25.3805 36.3713 24.7847 36.7613L19.7512 38.552C19.6267 38.481 19.4133 38.4367 19.3155 38.3392V38.3481Z" fill="#18578D"/>
<path d="M80.3123 42.7006C80.7035 42.5942 80.9437 42.9842 81.2727 43.1261C82.4466 43.6402 83.5315 43.259 84.7143 43.392C85.897 43.525 86.0838 45.3067 84.7143 45.4308C83.9228 45.5018 81.3794 45.4131 80.7124 45.1117C79.6898 44.6596 79.3163 42.9576 80.3034 42.6917L80.3123 42.7006Z" fill="#18578D"/>
<path d="M50.921 14.8481C50.761 14.7152 50.592 14.2099 50.592 13.9883C50.592 12.7827 51.8192 12.7916 52.6463 12.4015C53.3755 12.0558 54.9407 10.7882 55.5454 11.8608C55.9189 12.5168 55.5898 13.1727 55.0029 13.5539C54.7717 13.7046 51.9704 14.9368 51.757 14.9811C51.4902 15.0343 51.1434 15.0343 50.921 14.8481Z" fill="#18578D"/>
<path d="M38.9422 26.8419C39.4314 26.3543 40.5252 27.2053 41.0677 27.356C41.9214 27.5865 43.7 27.356 43.9223 28.3311C44.3314 30.1218 42.1081 29.6076 41.0499 29.4037C40.4363 29.2796 39.0579 28.8984 38.8533 28.2513C38.7644 27.9588 38.7377 27.0546 38.9511 26.8419H38.9422Z" fill="#18578D"/>
<path d="M47.6929 44.6774C47.6218 44.6064 47.4617 44.2519 47.4439 44.1455C47.186 42.7006 48.7334 42.9222 49.6938 42.5055C50.3786 42.2042 51.8548 40.7681 52.3617 42.0003C52.8686 43.2324 51.4991 43.7998 50.6187 44.2607C49.8806 44.6508 48.4399 45.422 47.7018 44.6862L47.6929 44.6774Z" fill="#18578D"/>
<path d="M39.7159 9.53826C40.3384 9.48507 40.7742 10.735 41.0765 11.125C41.6813 11.914 43.5933 12.7118 42.8018 13.9174C42.3305 14.6442 41.619 13.9351 41.1388 13.5628C40.4718 13.0486 39.2001 11.8076 39.0667 10.9743C38.9867 10.5045 39.1468 9.59145 39.7159 9.53826Z" fill="#18578D"/>
<path d="M80.081 30.299C80.419 30.6714 80.4278 31.9124 79.7876 32.0276C78.4003 32.2847 74.8253 30.6536 76.1592 29.0137C76.7195 28.3223 77.422 29.4037 78.1157 29.6963C78.5603 29.8824 79.8765 30.0774 80.081 30.299Z" fill="#18578D"/>
<path d="M53.1354 25.1753C53.4911 25.5122 53.5356 26.6025 53.1087 26.9394C52.8864 27.1167 50.8588 28.0475 50.5653 28.1006C49.8628 28.2247 49.1069 28.1006 49.1158 27.2319C49.1158 25.9554 51.5524 25.654 52.4239 25.0512C52.6374 25.0069 52.9753 25.0246 53.1443 25.1842L53.1354 25.1753Z" fill="#18578D"/>
<path d="M57.1461 24.5105C56.2479 23.6152 57.3684 22.6667 58.1955 22.3387C58.4534 22.2323 60.143 21.7182 60.312 21.7093C60.8189 21.6916 61.2013 22.4716 61.1657 22.906C61.0679 23.9432 59.5027 24.0495 58.7291 24.2977C58.2311 24.4662 57.7242 25.0778 57.155 24.5105H57.1461Z" fill="#18578D"/>
<path d="M44.5092 42.4789C45.0339 42.9488 44.9361 44.5355 43.9134 44.3316C43.5043 44.2519 41.619 43.1792 41.3078 42.8601C40.9254 42.4612 40.5963 41.7609 40.8542 41.2202C41.3522 40.2096 42.7751 41.5393 43.4243 41.9382C43.7178 42.1244 44.3047 42.2928 44.5003 42.4789H44.5092Z" fill="#18578D"/>
<path d="M83.4248 14.6797C83.8428 15.0166 83.8694 16.3462 83.2558 16.5235C82.7756 16.6565 80.9614 16.5856 80.5435 16.2931C80.0455 15.9473 80.0988 14.8393 80.6769 14.5467C81.0504 14.3517 83.158 14.4581 83.4337 14.6797H83.4248Z" fill="#18578D"/>
<path d="M85.23 28.3932C86.2083 28.3223 86.4573 29.9977 85.5858 30.4232C85.0166 30.698 83.8072 31.0259 83.4159 30.3877C82.6244 29.0846 84.1896 28.4641 85.23 28.3932Z" fill="#18578D"/>
<path d="M28.7064 8.05788C28.6175 8.14653 27.7282 8.4036 27.5593 8.42133C26.3142 8.5277 26.1364 6.60409 27.5326 6.23178C28.7687 5.90379 29.3734 7.38417 28.7064 8.05788Z" fill="#18578D"/>
<path d="M72.2819 24.5637C73.1001 24.7144 73.9627 25.8934 73.7048 26.7C73.1001 28.5793 70.53 25.4147 72.2819 24.5637Z" fill="#18578D"/>
<path d="M76.1237 42.8867C75.101 43.8441 73.9538 41.0695 74.9587 40.5908C76.0081 40.0855 76.8173 42.2396 76.1237 42.8867Z" fill="#18578D"/>
<path d="M59.9029 11.1516C59.0759 10.4868 60.0363 8.59862 61.1124 9.29005C62.2951 10.0524 60.9078 11.9671 59.9029 11.1516Z" fill="#18578D"/>
<path d="M57.8931 37.3641C58.9247 37.3641 58.9603 39.4207 57.7597 39.5714C56.3902 39.7487 56.5592 37.3641 57.8931 37.3641Z" fill="#18578D"/>
<path d="M28.3507 20.9913C29.8092 20.6367 29.8803 23.4024 28.3507 23.0922C27.328 22.8794 27.417 21.2217 28.3507 20.9913Z" fill="#18578D"/>
<path d="M62.7131 35.4228C64.2338 35.1568 64.3138 37.8073 62.9532 37.5325C62.0639 37.3464 61.8238 35.5823 62.7131 35.4228Z" fill="#18578D"/>
<path d="M68.4491 36.8677C69.5073 36.7613 69.9609 38.8268 69.1249 39.0838C67.8355 39.4827 67.3819 36.9829 68.4491 36.8677Z" fill="#18578D"/>
<path d="M29.8536 35.3607C29.2222 34.7845 29.5424 33.0559 30.7429 33.5789C31.8635 34.0665 31.1253 36.5131 29.8536 35.3607Z" fill="#18578D"/>
<path d="M34.4513 6.19632C35.8742 5.76196 35.9809 8.09334 35.3673 8.30609C34.0867 8.74045 33.5976 6.4534 34.4513 6.19632Z" fill="#18578D"/>
<path d="M35.5274 35.9192C36.0876 36.3713 36.221 38.1265 35.1538 38.0289C33.8377 37.9048 34.2468 34.8732 35.5274 35.9192Z" fill="#18578D"/>
<path d="M46.101 13.811C46.101 13.811 46.19 13.811 46.3412 13.811C47.9952 14.0592 47.3816 16.754 45.8698 15.77C45.2295 15.3534 45.1139 13.8642 46.101 13.811Z" fill="#18578D"/>
<path d="M67.5064 10.797C66.8928 11.0984 66.2258 11.0364 66.1013 10.2829C65.7367 7.96923 68.6091 8.90001 67.5064 10.797Z" fill="#18578D"/>
<path d="M65.7723 22.8351C65.2831 22.383 65.3276 20.7519 66.2258 20.9115C67.7376 21.1686 66.9283 23.8988 65.7723 22.8351Z" fill="#18578D"/>
<path d="M34.3357 21.8245C35.5185 21.5763 35.6252 23.89 34.5224 23.9166C33.6598 23.9343 33.4019 22.0196 34.3357 21.8245Z" fill="#18578D"/>
<path d="M86.4128 15.6282C87.3199 15.5484 87.5244 17.5075 86.6263 17.6316C85.3901 17.8089 85.5057 15.708 86.4128 15.6282Z" fill="#18578D"/>
<path d="M88.0936 41.8673C89.0807 41.5748 89.472 43.3743 88.5027 43.7023C87.6578 43.8884 87.3021 42.2307 88.0936 41.8673Z" fill="#18578D"/>
</g>
<defs>
<clipPath id="clip0_1_382">
<rect width="107" height="68" fill="white"/>
</clipPath>
</defs>
</svg>
