<svg width="108" height="68" viewBox="0 0 108 68" fill="none" xmlns="http://www.w3.org/2000/svg">
<g clip-path="url(#clip0_22_188)">
<path d="M90.362 52.3009C90.1197 52.5491 89.2221 52.8239 88.8541 52.9036C86.8524 53.338 83.244 53.205 81.3052 52.5491C74.5911 50.2886 74.3487 43.3743 65.6958 44.1277C60.364 44.5887 57.6533 49.3756 53.2101 51.6094C52.2856 52.0704 50.8674 52.682 49.88 52.9746C43.2018 54.9602 40.4102 49.5174 35.635 46.4503C33.2114 44.8901 28.8042 41.9293 25.9139 42.2041C23.984 42.3903 20.4475 45.1915 19.1459 46.6187C18.6523 47.1506 17.5751 49.2071 16.7314 48.4093C15.9864 47.7002 16.6955 46.8048 17.1533 46.2109C18.9395 43.8973 22.7902 41.0163 25.7972 40.7769C35.3388 40.0235 39.001 49.216 47.0974 51.3612C53.0216 52.9302 55.7144 46.8226 59.6998 43.9504C64.7264 40.3337 70.7224 42.9576 75.2463 45.9982C79.51 48.8614 81.6822 51.6449 87.4269 51.1573C88.1629 51.0953 89.5632 50.4748 90.0748 50.5545C90.748 50.6609 90.7929 51.8576 90.3441 52.3009H90.362Z" fill="white"/>
<path d="M33.4538 -6.78544e-06C36.2633 -0.035465 38.7766 1.23217 40.8501 3.01394C43.884 5.62899 45.6074 9.67122 50.4006 8.74931C52.9408 8.26176 54.4668 6.11654 56.3787 4.62729C67.0063 -3.6522 74.5821 9.32551 85.6317 9.04184L90.5775 8.67839C91.2776 8.81136 91.3853 10.3183 90.6672 10.5577C87.9565 11.0009 85.2188 11.125 82.4721 11.0718C78.3341 10.7793 75.6862 8.24403 72.4727 6.15199C68.7477 3.72311 65.247 3.43944 61.0013 4.66275C56.1183 6.06335 53.0216 10.5931 47.4295 10.5931C42.376 10.5931 41.9272 5.17689 38.1483 3.29761C35.9132 2.18067 30.6084 2.33137 28.131 2.75687C26.3807 3.0494 19.1729 6.19632 17.8803 7.31325C17.5123 7.63238 17.5841 8.1022 16.866 7.97809C15.9864 7.8274 16.1659 6.53317 16.6147 5.94811C17.2969 5.06165 20.2141 3.92699 21.363 3.4749C24.37 2.27818 30.375 0.0354514 33.4538 -6.78544e-06Z" fill="white"/>
<path d="M91.5738 36.2028C91.4122 36.3978 88.118 37.435 87.5884 37.5768C82.508 38.9774 78.9086 38.5253 75.2284 34.687C74.2949 33.7119 73.5499 32.524 72.5086 31.6376C68.5771 28.2868 60.6513 27.4092 55.9927 29.5278C53.1473 30.822 51.1097 33.969 48.2643 35.2543C41.6669 38.2328 37.502 32.852 32.3767 29.8558C30.0878 28.5173 28.9927 28.2779 26.4345 29.2176C24.011 30.104 21.4438 31.4692 19.1549 32.6481C18.1316 32.9141 17.8713 31.6198 18.2663 30.9373C18.4907 30.5384 20.0525 29.9533 20.5552 29.7317C26.9731 26.9837 30.8777 25.8756 36.9814 30.2192C39.5306 32.0276 40.3384 34.1551 43.9378 33.7296C52.9318 32.6659 56.9352 23.6949 67.0512 26.6646C71.7995 28.0563 72.5356 30.9195 75.8477 33.6144C79.1599 36.3092 84.5007 36.1496 88.5937 35.1036C89.2939 34.9263 90.8467 34.1374 91.4392 34.554C91.8072 34.8111 91.8431 35.8748 91.5738 36.2028Z" fill="white"/>
<path d="M91.3404 21.8422C91.7533 22.1791 91.8341 23.1808 91.4661 23.5619C91.0173 24.0318 87.8487 24.3952 87.0947 24.4307C78.7739 24.8296 75.9106 18.8992 68.7207 16.7894C60.9385 14.5024 56.0376 19.8566 49.7633 22.8971C43.875 25.7515 41.9182 20.6987 37.8251 17.6936C31.0482 12.7117 24.6303 15.3711 17.8265 18.6953C16.5608 18.8903 16.4441 17.3213 17.4495 16.6476C20.2859 14.7594 26.0575 13.7577 29.4505 13.35C32.61 12.9688 34.8181 12.9245 37.511 14.786C41.3437 17.4365 42.2862 21.6206 47.9232 21.204C54.8617 20.6987 59.61 12.3305 66.8627 14.0857C69.6453 14.7594 71.638 16.4703 73.9807 17.9152C78.4059 20.6632 83.8005 22.6134 89.1233 22.0284C89.7068 21.9663 90.9185 21.4965 91.3404 21.8422Z" fill="white"/>
<path d="M19.9179 59.2949C22.7184 58.9757 24.3521 59.747 24.5406 62.6545C24.7111 65.1898 24.5406 67.725 21.4528 67.9644C17.2251 68.2924 16.7224 65.899 17.0366 62.2911C17.1981 60.4561 18.0509 59.4987 19.9179 59.286V59.2949ZM21.7221 65.9078C22.2696 65.3582 22.2247 62.3531 21.9375 61.644C21.6233 60.855 20.1602 60.7752 19.7204 61.4844C19.3165 62.1492 19.3434 64.5515 19.5409 65.3228C19.7833 66.2624 21.1386 66.484 21.7221 65.9078Z" fill="white"/>
<path d="M92.4624 59.3835C94.2038 59.5253 98.1622 58.5946 99.015 60.6157C99.5445 61.8833 99.2124 63.6119 97.6596 63.8601C99.1316 64.4629 99.1676 66.5106 99.4727 67.858H97.2377C96.7799 67.1932 96.8338 65.4823 96.385 64.8795C96.0888 64.4806 95.2091 64.6757 94.7603 64.6313V67.6719L94.5808 67.8492H92.4624V59.3747V59.3835ZM94.7513 62.9648C95.7207 62.9116 96.9774 63.3371 96.9325 61.9542C96.8966 60.7043 95.6759 60.9437 94.7513 60.9348V62.9648Z" fill="white"/>
<path d="M78.9265 59.3835V62.4861H81.4578V59.3835H83.7557V67.8492H81.4578V64.1527H78.9265V67.8492H76.8082L76.6287 67.6719V59.5608L76.8082 59.3835H78.9265Z" fill="white"/>
<path d="M105.81 67.8492L105.199 65.8104L102.605 65.8724L101.95 67.8492H99.8318L102.139 59.8091C102.453 59.2949 103.683 59.3393 104.248 59.3747C104.76 59.4013 105.487 59.4279 105.729 59.9421L108.009 67.601L107.874 67.8492H105.819H105.81ZM103.09 64.1527H104.787L103.997 61.1654L103.7 61.2451L103.09 64.1439V64.1527Z" fill="white"/>
<path d="M28.0412 59.3834V65.5266C28.0412 65.5709 28.3195 65.9432 28.3464 65.9432H31.5509C31.5688 66.351 31.515 66.7765 31.5598 67.1843C31.5688 67.2995 31.6137 67.6363 31.7932 67.6097L34.2078 59.6671C34.6386 59.2505 36.9634 59.2593 37.4212 59.6051C38.0765 60.0926 39.378 66.4662 39.9614 67.6009L39.8268 67.8491H37.7713C37.3225 67.4679 37.4571 65.9255 36.9275 65.8191C36.6852 65.7748 34.6745 65.8014 34.5578 65.8723C34.2616 66.2889 34.3065 67.7516 33.7769 67.8491C33.4089 67.92 32.5023 67.8757 32.0804 67.8491C31.865 67.8402 31.7035 67.6718 31.6047 67.6629C30.2404 67.6098 27.3052 68.3544 26.264 67.3261C26.1473 67.2108 25.7433 66.4574 25.7433 66.351V59.5519L25.9229 59.3746H28.0412V59.3834ZM34.9259 64.1526H36.739L35.9491 61.1652L35.6529 61.245L34.9259 64.1437V64.1526Z" fill="white"/>
<path d="M6.10373 67.8492L5.96909 67.601L8.24901 59.942C8.46443 59.4101 9.21842 59.4012 9.72108 59.3658C10.3404 59.3303 11.4624 59.2505 11.8305 59.8001L14.1463 67.7162C13.3474 67.9289 12.6652 67.7162 11.8574 67.7073L11.2829 65.828L8.76962 65.8015L8.15925 67.8403H6.10373V67.8492ZM9.18252 64.1526H10.879L10.2686 61.2539L9.97241 61.1742L9.18252 64.1615V64.1526Z" fill="white"/>
<path d="M56.3248 59.4988V61.1654H52.878C52.4741 61.1654 52.5728 62.4507 52.5728 62.7167H55.8401V64.268H52.5728C52.5908 64.5782 52.4382 66.0586 52.878 66.0586H56.3248V67.7251C54.745 67.5124 50.5711 68.7357 50.2749 66.36C50.1672 65.5179 50.1493 61.2629 50.3378 60.5715C50.8584 58.6124 54.8168 59.5875 56.3248 59.4988Z" fill="white"/>
<path d="M87.5076 64.2769C87.5705 64.6935 87.3461 65.6952 87.6782 65.9612C88.109 66.2892 90.4697 65.8991 91.1429 66.1207L91.2596 67.7429C89.6798 67.5213 85.506 68.7535 85.2098 66.3689C85.0661 65.1899 85.0841 62.2026 85.2098 60.9882C85.4611 58.4263 89.5273 59.623 91.2596 59.4989L91.2058 61.0591C90.9724 61.3959 88.3065 60.9616 87.75 61.2275C87.3371 61.4225 87.5615 62.3267 87.5076 62.7167H90.7749V64.268H87.5076V64.2769Z" fill="white"/>
<path d="M59.0446 59.3836L60.5615 65.7572C60.5795 65.9345 60.6513 66.0586 60.8577 66.0586C61.2078 66.0675 62.0067 59.9244 62.5542 59.3748H64.6097L64.7444 59.623L62.5811 67.2819C62.1952 68.1152 59.4216 68.0975 59.0176 67.2819L56.8364 59.6496C56.7826 59.552 56.9621 59.3748 56.998 59.3748H59.0535L59.0446 59.3836Z" fill="white"/>
<path d="M48.9465 61.2894H45.8677C45.8677 61.2894 45.4368 61.6883 45.392 61.777C45.0599 62.3886 44.9432 65.9433 45.9844 65.9433H49.1888L49.3055 67.6098C47.0256 68.0353 43.6955 68.5672 42.9595 65.704C42.6094 64.3654 42.5914 61.316 43.5698 60.2257C44.7098 58.958 47.5193 59.2062 49.0093 59.614L48.9375 61.2894H48.9465Z" fill="white"/>
<path d="M75.3002 61.2894H72.2214C71.2789 61.2894 71.3507 64.7289 71.6918 65.3937C72.1945 66.3688 74.4026 65.8015 75.3451 65.9345L75.5426 67.5478C73.9359 68.0708 70.7494 68.319 69.7081 66.7411C68.7836 65.3405 68.7926 61.6972 69.7979 60.3409C70.8032 58.9846 73.7653 59.2417 75.2912 59.552C75.6144 59.7736 75.1386 60.8905 75.2912 61.2894H75.3002Z" fill="white"/>
<path d="M2.29787 59.3835V65.6508C2.29787 65.7394 2.59408 65.9167 2.71975 65.9433C3.29422 66.0497 5.39461 65.8015 5.68185 65.9965L5.79854 67.734C4.43418 67.6276 1.50798 68.3456 0.493684 67.3085C0.376995 67.1844 0 66.4752 0 66.36V59.3835H2.29787Z" fill="white"/>
<path d="M67.8052 59.3835H65.5073V67.8581H67.8052V59.3835Z" fill="white"/>
<path d="M22.6915 7.98678C23.6789 7.79176 24.1097 9.16577 23.1223 9.84834C22.7005 10.1409 17.9611 11.9226 17.4315 11.9847C16.1928 12.1265 15.9325 10.7171 16.8122 10.0522C18.1496 9.62672 19.505 9.23668 20.8245 8.76686C21.363 8.57184 22.1799 8.08429 22.7005 7.98678H22.6915Z" fill="white"/>
<path d="M24.2623 22.7819C25.3843 22.5425 25.6446 24.1559 24.8188 24.6523C24.2623 24.9803 19.9987 26.4695 19.3703 26.5582C18.2932 26.7089 17.9432 25.1487 18.9395 24.5725C20.2321 23.819 22.8441 23.5797 24.2713 22.7907L24.2623 22.7819Z" fill="white"/>
<path d="M73.5588 11.453C74.1871 11.3821 75.8477 12.6852 76.6645 12.9954C77.7058 13.3855 79.7433 13.3943 79.5189 14.9368C79.3574 16.0271 78.2174 15.4864 77.4993 15.2736C76.4042 14.9545 73.0382 13.7844 72.8766 12.5433C72.8228 12.109 73.0651 11.5062 73.5499 11.453H73.5588Z" fill="white"/>
<path d="M19.496 38.3479C19.1459 37.9933 19.1549 37.2576 19.4152 36.8409C19.8999 36.0431 23.5532 35.3783 24.5136 34.8198L24.8996 34.8553C25.492 35.2187 25.6177 36.3711 25.0163 36.7612L19.9358 38.5518C19.8102 38.4809 19.5948 38.4366 19.496 38.3391V38.3479Z" fill="white"/>
<path d="M81.0628 42.7005C81.4578 42.5941 81.7001 42.9842 82.0322 43.126C83.2171 43.6402 84.3122 43.259 85.506 43.392C86.6998 43.5249 86.8883 45.3067 85.506 45.4308C84.7071 45.5017 82.14 45.4131 81.4667 45.1117C80.4345 44.6596 80.0575 42.9576 81.0539 42.6917L81.0628 42.7005Z" fill="white"/>
<path d="M51.3969 14.8479C51.2354 14.715 51.0648 14.2097 51.0648 13.9881C51.0648 12.7825 52.3035 12.7914 53.1383 12.4013C53.8743 12.0556 55.4541 10.788 56.0645 11.8606C56.4415 12.5166 56.1094 13.1725 55.5169 13.5537C55.2836 13.7044 52.4561 14.9366 52.2407 14.9809C51.9714 15.0341 51.6213 15.0341 51.3969 14.8479Z" fill="white"/>
<path d="M39.3062 26.8418C39.7999 26.3542 40.9039 27.2052 41.4515 27.3559C42.3132 27.5864 44.1084 27.3559 44.3328 28.331C44.7457 30.1217 42.5017 29.6075 41.4335 29.4036C40.8142 29.2795 39.4229 28.8983 39.2164 28.2512C39.1267 27.9587 39.0997 27.0545 39.3152 26.8418H39.3062Z" fill="white"/>
<path d="M48.1386 44.6772C48.0668 44.6063 47.9053 44.2517 47.8873 44.1453C47.627 42.7004 49.1888 42.922 50.1582 42.5054C50.8494 42.204 52.3394 40.7679 52.8511 42.0001C53.3627 43.2323 51.9804 43.7996 51.0918 44.2606C50.3467 44.6506 48.8926 45.4218 48.1476 44.6861L48.1386 44.6772Z" fill="white"/>
<path d="M40.0871 9.53827C40.7154 9.48508 41.1553 10.735 41.4604 11.125C42.0708 11.914 44.0007 12.7118 43.2018 13.9174C42.7261 14.6443 42.008 13.9351 41.5233 13.5628C40.8501 13.0486 39.5665 11.8076 39.4319 10.9743C39.3511 10.5045 39.5126 9.59146 40.0871 9.53827Z" fill="white"/>
<path d="M80.8295 30.299C81.1706 30.6713 81.1795 31.9123 80.5333 32.0276C79.133 32.2846 75.5246 30.6535 76.871 29.0136C77.4365 28.3222 78.1456 29.4036 78.8457 29.6962C79.2945 29.8823 80.623 30.0774 80.8295 30.299Z" fill="white"/>
<path d="M53.632 25.1754C53.991 25.5122 54.0359 26.6026 53.6051 26.9394C53.3807 27.1167 51.3341 28.0475 51.0379 28.1007C50.3288 28.2248 49.5658 28.1007 49.5748 27.2319C49.5748 25.9554 52.0342 25.654 52.9139 25.0513C53.1293 25.0069 53.4704 25.0247 53.641 25.1842L53.632 25.1754Z" fill="white"/>
<path d="M57.6802 24.5105C56.7736 23.6152 57.9046 22.6667 58.7394 22.3387C58.9997 22.2323 60.7051 21.7181 60.8757 21.7093C61.3873 21.6916 61.7733 22.4716 61.7374 22.906C61.6386 23.9431 60.0588 24.0495 59.2779 24.2977C58.7753 24.4662 58.2636 25.0778 57.6892 24.5105H57.6802Z" fill="white"/>
<path d="M44.9252 42.4789C45.4548 42.9487 45.3561 44.5355 44.3238 44.3316C43.9109 44.2518 42.008 43.1792 41.6938 42.8601C41.3078 42.4611 40.9757 41.7609 41.236 41.2201C41.7387 40.2096 43.1749 41.5392 43.8301 41.9381C44.1263 42.1243 44.7188 42.2927 44.9162 42.4789H44.9252Z" fill="white"/>
<path d="M84.2045 14.6797C84.6263 15.0165 84.6533 16.3462 84.0339 16.5235C83.5492 16.6565 81.7181 16.5856 81.2962 16.293C80.7936 15.9473 80.8474 14.8392 81.4309 14.5467C81.8079 14.3517 83.9352 14.4581 84.2134 14.6797H84.2045Z" fill="white"/>
<path d="M86.0266 28.3931C87.014 28.3221 87.2653 29.9975 86.3856 30.423C85.8112 30.6978 84.5904 31.0258 84.1955 30.3876C83.3966 29.0845 84.9764 28.464 86.0266 28.3931Z" fill="white"/>
<path d="M28.9747 8.0577C28.885 8.14635 27.9874 8.40342 27.8168 8.42115C26.5602 8.52752 26.3807 6.60391 27.7899 6.2316C29.0376 5.90361 29.6479 7.38399 28.9747 8.0577Z" fill="white"/>
<path d="M72.9574 24.5635C73.7832 24.7142 74.6539 25.8932 74.3936 26.6998C73.7832 28.5791 71.1892 25.4145 72.9574 24.5635Z" fill="white"/>
<path d="M76.8351 42.8866C75.8029 43.844 74.6449 41.0694 75.6592 40.5907C76.7184 40.0854 77.5352 42.2395 76.8351 42.8866Z" fill="white"/>
<path d="M60.4628 11.1516C59.628 10.4867 60.5974 8.59856 61.6835 9.29C62.8773 10.0524 61.4771 11.9671 60.4628 11.1516Z" fill="white"/>
<path d="M58.4342 37.364C59.4754 37.364 59.5113 39.4206 58.2995 39.5713C56.9172 39.7486 57.0878 37.364 58.4342 37.364Z" fill="white"/>
<path d="M28.6157 20.9912C30.0878 20.6366 30.1596 23.4023 28.6157 23.0921C27.5834 22.8793 27.6732 21.2217 28.6157 20.9912Z" fill="white"/>
<path d="M63.2992 35.4226C64.8341 35.1567 64.9149 37.8072 63.5416 37.5324C62.6439 37.3462 62.4016 35.5822 63.2992 35.4226Z" fill="white"/>
<path d="M69.0888 36.8675C70.1569 36.7611 70.6147 38.8266 69.771 39.0836C68.4694 39.4825 68.0117 36.9827 69.0888 36.8675Z" fill="white"/>
<path d="M30.1326 35.3605C29.4953 34.7843 29.8185 33.0557 31.0302 33.5788C32.1612 34.0663 31.4162 36.5129 30.1326 35.3605Z" fill="white"/>
<path d="M34.7733 6.19615C36.2094 5.76179 36.3172 8.09316 35.6978 8.30591C34.4053 8.74028 33.9116 6.45322 34.7733 6.19615Z" fill="white"/>
<path d="M35.8594 35.9191C36.4249 36.3712 36.5595 38.1264 35.4824 38.0289C34.1539 37.9048 34.5668 34.8731 35.8594 35.9191Z" fill="white"/>
<path d="M46.5319 13.8108C46.5319 13.8108 46.6217 13.8108 46.7743 13.8108C48.4438 14.059 47.8245 16.7538 46.2985 15.7699C45.6523 15.3532 45.5356 13.864 46.5319 13.8108Z" fill="white"/>
<path d="M68.1373 10.797C67.518 11.0984 66.8447 11.0363 66.7191 10.2828C66.3511 7.96919 69.2503 8.89997 68.1373 10.797Z" fill="white"/>
<path d="M66.387 22.8349C65.8933 22.3828 65.9382 20.7518 66.8448 20.9113C68.3707 21.1684 67.5539 23.8987 66.387 22.8349Z" fill="white"/>
<path d="M34.6566 21.8245C35.8504 21.5763 35.9581 23.89 34.8451 23.9166C33.9744 23.9343 33.7141 22.0196 34.6566 21.8245Z" fill="white"/>
<path d="M87.2204 15.6281C88.136 15.5483 88.3424 17.5074 87.4358 17.6315C86.1882 17.8088 86.3048 15.7079 87.2204 15.6281Z" fill="white"/>
<path d="M88.9169 41.8672C89.9132 41.5747 90.3082 43.3742 89.3298 43.7022C88.477 43.8883 88.118 42.2307 88.9169 41.8672Z" fill="white"/>
</g>
<defs>
<clipPath id="clip0_22_188">
<rect width="108" height="68" fill="white"/>
</clipPath>
</defs>
</svg>
