<svg width="259" height="185" viewBox="0 0 259 185" fill="none" xmlns="http://www.w3.org/2000/svg">
<path d="M253.93 180.748C253.1 181.606 250.025 182.556 248.764 182.831C241.906 184.332 229.544 183.873 222.902 181.606C199.9 173.794 199.07 149.899 169.426 152.503C151.159 154.096 141.872 170.639 126.651 178.359C123.483 179.952 118.624 182.065 115.242 183.076C92.3628 189.939 82.7991 171.129 66.4394 160.529C58.1366 155.137 43.0377 144.905 33.1357 145.855C26.5242 146.498 14.4082 156.179 9.94922 161.111C8.25789 162.949 4.56773 170.057 1.67711 167.299C-0.875253 164.849 1.55411 161.755 3.12242 159.702C9.24194 151.706 22.4343 141.75 32.736 140.923C65.4246 138.319 77.9712 170.087 105.709 177.501C126.005 182.923 135.23 161.816 148.884 151.89C166.104 139.391 186.646 148.459 202.145 158.967C216.752 168.862 224.194 178.481 243.875 176.796C246.396 176.582 251.193 174.437 252.946 174.713C255.253 175.081 255.406 179.216 253.869 180.748H253.93Z" fill="#5CD8F8"/>
<path d="M58.9669 0.00250771C68.5921 -0.120032 77.2025 4.26075 84.306 10.4184C94.7 19.4556 100.604 33.4251 117.025 30.2391C125.728 28.5542 130.956 21.1406 137.506 15.9939C173.915 -12.6191 199.87 32.2304 237.724 31.2501L254.668 29.994C257.067 30.4536 257.436 35.6615 254.976 36.4886C245.689 38.0204 236.31 38.4493 226.9 38.2654C212.724 37.2545 203.652 28.4929 192.643 21.2631C179.881 12.8692 167.888 11.8888 153.343 16.1164C136.614 20.9568 126.005 36.6112 106.847 36.6112C89.5337 36.6112 87.9962 17.8933 75.0499 11.3987C67.3928 7.53868 49.2188 8.05948 40.7314 9.52995C34.7349 10.5409 10.0416 21.4163 5.61337 25.2763C4.35256 26.3791 4.59858 28.0028 2.13847 27.5739C-0.875158 27.0531 -0.260134 22.5804 1.27743 20.5585C3.61453 17.495 13.6087 13.5738 17.5449 12.0114C27.8466 7.87567 48.4192 0.125047 58.9669 0.00250771Z" fill="#5CD8F8"/>
<path d="M258.082 125.115C257.528 125.789 246.242 129.373 244.428 129.864C227.023 134.704 214.692 133.141 202.084 119.877C198.885 116.507 196.333 112.402 192.766 109.338C179.297 97.7582 152.143 94.7254 136.183 102.047C126.435 106.52 119.455 117.395 109.707 121.837C87.1044 132.131 72.8357 113.535 55.2767 103.181C47.4352 98.5547 43.6835 97.7276 34.9194 100.975C26.6165 104.038 17.8216 108.756 9.98004 112.831C6.47438 113.75 5.5826 109.277 6.93565 106.918C7.70444 105.539 13.0552 103.518 14.7772 102.752C36.7644 93.2549 50.1413 89.4255 71.0522 104.437C79.7856 110.686 82.5532 118.039 94.8845 116.568C125.697 112.892 139.412 81.8894 174.069 92.152C190.337 96.9617 192.858 106.857 204.205 116.17C215.553 125.483 233.85 124.931 247.872 121.316C250.271 120.704 255.591 117.977 257.62 119.417C258.881 120.305 259.004 123.982 258.082 125.115Z" fill="#5CD8F8"/>
<path d="M257.282 75.4867C258.697 76.6509 258.974 80.1126 257.713 81.4299C256.175 83.0536 245.32 84.3096 242.737 84.4321C214.23 85.8107 204.421 65.316 179.789 58.0249C153.127 50.1211 136.337 68.6245 114.842 79.1323C94.6692 88.9967 87.9654 71.5349 73.9428 61.1496C50.7256 43.9328 28.7384 53.1233 5.42885 64.6114C1.09291 65.2853 0.693145 59.863 4.13729 57.5347C13.8547 51.0095 33.6278 47.5478 45.2518 46.1386C56.0763 44.8213 63.6411 44.6681 72.8665 51.1014C85.9973 60.2612 89.2262 74.7209 108.538 73.281C132.309 71.5349 148.576 42.6156 173.423 48.6813C182.956 51.0095 189.783 56.922 197.809 61.9155C212.97 71.4123 231.451 78.152 249.687 76.1301C251.686 75.9156 255.837 74.292 257.282 75.4867Z" fill="#5CD8F8"/>
<path d="M22.096 27.6044C25.4787 26.9304 26.9548 31.6788 23.5721 34.0377C22.1268 35.0487 5.89009 41.2063 4.07576 41.4207C-0.167924 41.9109 -1.05971 37.0399 1.95392 34.7423C6.53586 33.2718 11.1793 31.9239 15.6998 30.3003C17.5448 29.6263 20.3432 27.9414 22.1268 27.6044H22.096Z" fill="#5CD8F8"/>
<path d="M27.4775 78.734C31.3214 77.9069 32.2132 83.4824 29.3841 85.198C27.4775 86.3315 12.8706 91.4781 10.718 91.7845C7.02786 92.3053 5.82856 86.9135 9.24195 84.9223C13.6701 82.3183 22.6188 81.4912 27.5082 78.7647L27.4775 78.734Z" fill="#5CD8F8"/>
<path d="M196.364 39.5826C198.516 39.3376 204.205 43.8409 207.004 44.9131C210.571 46.261 217.552 46.2917 216.783 51.6221C216.229 55.3902 212.324 53.5215 209.864 52.7863C206.112 51.6834 194.58 47.6396 194.027 43.3507C193.842 41.8496 194.673 39.7664 196.333 39.5826H196.364Z" fill="#5CD8F8"/>
<path d="M11.1487 132.529C9.94935 131.303 9.9801 128.761 10.8719 127.321C12.5325 124.564 25.0483 122.266 28.3386 120.336L29.661 120.459C31.6905 121.715 32.1211 125.697 30.0607 127.045L12.6555 133.233C12.2249 132.988 11.4869 132.835 11.1487 132.498V132.529Z" fill="#5CD8F8"/>
<path d="M222.072 147.571C223.425 147.203 224.255 148.551 225.393 149.041C229.452 150.818 233.204 149.501 237.294 149.96C241.384 150.42 242.03 156.577 237.294 157.006C234.557 157.251 225.762 156.945 223.456 155.903C219.919 154.341 218.628 148.459 222.041 147.54L222.072 147.571Z" fill="#5CD8F8"/>
<path d="M120.439 51.3158C119.885 50.8562 119.301 49.11 119.301 48.3442C119.301 44.1778 123.545 44.2085 126.405 42.8605C128.926 41.6658 134.338 37.285 136.43 40.9918C137.721 43.2588 136.583 45.5258 134.554 46.8431C133.754 47.3639 124.067 51.6221 123.329 51.7753C122.407 51.9591 121.208 51.9591 120.439 51.3158Z" fill="#5CD8F8"/>
<path d="M79.0167 92.7649C80.7081 91.08 84.4905 94.021 86.3663 94.5418C89.3184 95.3383 95.4687 94.5417 96.2375 97.9116C97.652 104.1 89.9642 102.323 86.3048 101.618C84.183 101.19 79.4165 99.8722 78.7092 97.6359C78.4017 96.6249 78.3095 93.5002 79.0475 92.7649H79.0167Z" fill="#5CD8F8"/>
</svg>
